<svg xmlns="http://www.w3.org/2000/svg" xmlns:xlink="http://www.w3.org/1999/xlink" viewBox="0 0 200.03 130.25"><defs><style>.cls-1{fill:#091e42;}.cls-2{isolation:isolate;}.cls-3,.cls-4,.cls-5{opacity:0.15;}.cls-14,.cls-3,.cls-4,.cls-5{mix-blend-mode:multiply;}.cls-3{fill:url(#linear-gradient);}.cls-4{fill:url(#linear-gradient-2);}.cls-5{fill:url(#linear-gradient-3);}.cls-6{fill:#a5adba;}.cls-7{clip-path:url(#clip-path);}.cls-8{fill:#ffab00;}.cls-9{fill:#f0d0b4;}.cls-10{fill:url(#linear-gradient-4);}.cls-11{fill:#ecc19c;}.cls-12{fill:url(#linear-gradient-5);}.cls-13{fill:#ff8b00;}.cls-14,.cls-18{fill:none;stroke-miterlimit:10;}.cls-14{stroke:#fff0b2;stroke-linecap:round;stroke-width:0.65px;}.cls-15{fill:url(#linear-gradient-6);}.cls-16{fill:#a27f68;}.cls-17{fill:url(#radial-gradient);}.cls-18{stroke:#0052cc;stroke-width:0.82px;}.cls-19{fill:#4c9aff;}.cls-20{fill:#b2d4ff;}.cls-21{fill:url(#linear-gradient-7);}.cls-22{fill:#f1dad5;}.cls-23{fill:#505f79;}.cls-24{fill:#00c7e5;}.cls-25{fill:url(#linear-gradient-8);}.cls-26{fill:#172b4d;}.cls-27{fill:#00b8d9;}.cls-28{fill:url(#linear-gradient-9);}.cls-29{fill:#72594b;}.cls-30{fill:#36b37e;}.cls-31{fill:#00875a;}.cls-32{fill:#543e36;}.cls-33{fill:url(#linear-gradient-10);}</style><linearGradient id="linear-gradient" y1="113.35" x2="147.8" y2="113.35" gradientUnits="userSpaceOnUse"><stop offset="0" stop-color="#091e42" stop-opacity="0"/><stop offset="0.58" stop-color="#091e42"/></linearGradient><linearGradient id="linear-gradient-2" x1="107.82" y1="126.93" x2="148.56" y2="126.93" xlink:href="#linear-gradient"/><linearGradient id="linear-gradient-3" x1="148.56" y1="115.38" x2="200.03" y2="115.38" xlink:href="#linear-gradient"/><clipPath id="clip-path"><path id="_Clipping_Path_" data-name="&lt;Clipping Path&gt;" class="cls-1" d="M32.4,116.91l-9.18-1.11.71-5.83,3,.5c.07,2,.71,2.83,1.25,3.26,1.19,1,2.78.5,3.72,1.69A2.66,2.66,0,0,1,32.4,116.91Z"/></clipPath><linearGradient id="linear-gradient-4" x1="4530.52" y1="50.65" x2="4536.89" y2="50.65" gradientTransform="matrix(-1, 0, 0, 1, 4566.21, 0)" gradientUnits="userSpaceOnUse"><stop offset="0" stop-color="#ecc19c"/><stop offset="0.56" stop-color="#f0d0b4"/></linearGradient><linearGradient id="linear-gradient-5" x1="-3002.59" y1="2277.43" x2="-3010.19" y2="2285.07" gradientTransform="translate(3751.15 -592.66) rotate(27.21)" gradientUnits="userSpaceOnUse"><stop offset="0" stop-color="#ff991f"/><stop offset="0.46" stop-color="#ff9b1d"/><stop offset="0.68" stop-color="#ffa318"/><stop offset="0.85" stop-color="#ffb00f"/><stop offset="0.99" stop-color="#ffc202"/><stop offset="1" stop-color="#ffc400"/></linearGradient><linearGradient id="linear-gradient-6" x1="-2074.58" y1="72.3" x2="-2074.58" y2="51.22" gradientTransform="translate(2106.57)" gradientUnits="userSpaceOnUse"><stop offset="0" stop-color="#ff991f"/><stop offset="0.77" stop-color="#ffc400"/></linearGradient><radialGradient id="radial-gradient" cx="531.88" cy="3484.25" r="51.68" gradientTransform="matrix(0.67, 0.74, -0.54, 0.49, 1624.07, -2064.74)" gradientUnits="userSpaceOnUse"><stop offset="0.1" stop-color="#deebff" stop-opacity="0.2"/><stop offset="0.23" stop-color="#d7e7ff" stop-opacity="0.23"/><stop offset="0.44" stop-color="#c3ddff" stop-opacity="0.32"/><stop offset="0.57" stop-color="#b2d4ff" stop-opacity="0.4"/><stop offset="0.75" stop-color="#b2d4ff" stop-opacity="0.41"/><stop offset="0.84" stop-color="#b2d4ff" stop-opacity="0.44"/><stop offset="0.92" stop-color="#b2d4ff" stop-opacity="0.49"/><stop offset="0.98" stop-color="#b2d4ff" stop-opacity="0.57"/><stop offset="1" stop-color="#b2d4ff" stop-opacity="0.6"/></radialGradient><linearGradient id="linear-gradient-7" x1="1369.86" y1="-2122.4" x2="1369.96" y2="-2130.8" gradientTransform="translate(590.82 2524.65) rotate(-45.66)" gradientUnits="userSpaceOnUse"><stop offset="0" stop-color="#ffab00"/><stop offset="0.01" stop-color="#ffac00"/><stop offset="0.23" stop-color="#ffb900"/><stop offset="0.51" stop-color="#ffc200"/><stop offset="1" stop-color="#ffc400"/></linearGradient><linearGradient id="linear-gradient-8" x1="-4479.28" y1="88.06" x2="-4454.45" y2="88.06" gradientTransform="translate(4587.72)" gradientUnits="userSpaceOnUse"><stop offset="0" stop-color="#00a3bf"/><stop offset="0.3" stop-color="#00a7c4"/><stop offset="0.64" stop-color="#00b2d1"/><stop offset="0.78" stop-color="#00b8d9"/></linearGradient><linearGradient id="linear-gradient-9" x1="-4477.87" y1="68.28" x2="-4454.66" y2="68.28" gradientTransform="translate(4587.72)" gradientUnits="userSpaceOnUse"><stop offset="0" stop-color="#00b8d9"/><stop offset="0.41" stop-color="#00bddd"/><stop offset="0.78" stop-color="#00c7e5"/></linearGradient><linearGradient id="linear-gradient-10" x1="5132.59" y1="38.83" x2="5164.27" y2="70.51" gradientTransform="matrix(-1, 0, 0, 1, 5323.28, 0)" gradientUnits="userSpaceOnUse"><stop offset="0" stop-color="#79f2c0"/><stop offset="1" stop-color="#36b37e"/></linearGradient></defs><title>Support Hero </title><g class="cls-2"><g id="Layer_2" data-name="Layer 2"><g id="Layer_1-2" data-name="Layer 1"><path class="cls-3" d="M147.8,113.35c0-5.34-26.48-9.68-59.14-9.68-26.87,0-49.55,2.93-56.75,6.95-1.39,0-2.82-.06-4.27-.06C12.37,110.56,0,112.88,0,115.74s12.37,5.18,27.64,5.18a121,121,0,0,0,17-1.1c10.83,2,26.53,3.21,44,3.21C121.32,123,147.8,118.69,147.8,113.35Z"/><ellipse class="cls-4" cx="128.19" cy="126.93" rx="20.37" ry="3.32"/><ellipse class="cls-5" cx="174.29" cy="115.38" rx="25.73" ry="4.2"/><path class="cls-1" d="M51.78,110.6c-1.2-.94-2.63-.11-4-.77-.62-.29-1.44-1-2-2.88l-3,.22.68,5.84,9.18-1.07A2.66,2.66,0,0,0,51.78,110.6Z"/><path class="cls-6" d="M43.47,113l9.18-1.07a3.26,3.26,0,0,0-.26-.61l-9,1Z"/><circle class="cls-6" cx="45.05" cy="110.02" r="0.69" transform="translate(-12.43 5.96) rotate(-6.65)"/><path id="_Clipping_Path_2" data-name="&lt;Clipping Path&gt;" class="cls-1" d="M32.4,116.91l-9.18-1.11.71-5.83,3,.5c.07,2,.71,2.83,1.25,3.26,1.19,1,2.78.5,3.72,1.69A2.66,2.66,0,0,1,32.4,116.91Z"/><g class="cls-7"><rect class="cls-6" x="23.02" y="115.72" width="9.61" height="0.94" transform="translate(14.21 -2.51) rotate(6.92)"/></g><path class="cls-6" d="M23.22,115.8l9.18,1.11a3.26,3.26,0,0,0-.11-.65l-9-1.09Z"/><circle class="cls-6" cx="25.46" cy="113.26" r="0.69" transform="translate(-90.05 124.89) rotate(-83.08)"/><polygon class="cls-8" points="42.81 107.34 45.8 106.95 45.31 102.92 41.98 103.36 42.81 107.34"/><path class="cls-9" d="M43.51,84.2c.59,6,1,11.13,1.8,18.72l-3.3.47a78.4,78.4,0,0,1-3-15.17c-.13-1.27-.12-1.71-.19-2.92Z"/><path class="cls-9" d="M32.07,87.1c-1.38,6.56-2.93,12.27-4.64,20.39l-3.26-.83A86.45,86.45,0,0,1,26,89.9c.27-1.36.56-1.86.87-3.15Z"/><path class="cls-10" d="M35.69,51.28a4.12,4.12,0,0,1-2.28,2.8,4,4,0,0,1-4.09-.66,11.2,11.2,0,0,0,0-6.49l5.46,1.35a12.18,12.18,0,0,0-.08,1.67c0,.71.09,1,.29,1.15A.94.94,0,0,0,35.69,51.28Z"/><path class="cls-11" d="M40.89,62.88a1.53,1.53,0,0,1,.85.63,23.54,23.54,0,0,1,3.28.07c2.15.2,3.21.59,5.55.73.9.05,1.63,0,2.08,0l-.78,2.06a66.1,66.1,0,0,1-7.68,1.45,9.18,9.18,0,0,1-2.47,0c-1-.14-3.6-.52-3.91-1.9S39.55,62.53,40.89,62.88Z"/><path class="cls-12" d="M39.31,67.3a3.37,3.37,0,0,1-1.3-.55A4.62,4.62,0,0,1,36.44,64c-.59-2-1-3.51-1.38-4.76l3.72-6.78A16.51,16.51,0,0,1,39.35,55a18.57,18.57,0,0,0,1.12,5.09c.76,2.35,1.32,2.55,1.24,3.66A5.2,5.2,0,0,1,39.31,67.3Z"/><path class="cls-13" d="M25.28,89l0-.45c.33-4.46.71-4.17,1.16-8.79q.43-4.4.92-8.7l11.34-.1,5.73,15.18a19.83,19.83,0,0,1-6,2.69,30.36,30.36,0,0,0-4.48-6.5,37.94,37.94,0,0,1-1.5,6.05c0,.13-.11.45-.21.9a7.77,7.77,0,0,1-2.45.65A8.06,8.06,0,0,1,25.28,89Z"/><path class="cls-14" d="M34.39,73.1"/><path class="cls-14" d="M33.26,52.94"/><path id="_Path_" data-name="&lt;Path&gt;" class="cls-15" d="M36.86,51.22c-.58,0-1.1,0-1.52,0A3.35,3.35,0,0,1,31,52l-1.19-.73-5,3c.11.8.26,2,.46,3.34.43,3,.62,4.58.9,5.83a44,44,0,0,1,.89,4.34A31.3,31.3,0,0,1,27.38,71a12.86,12.86,0,0,0,11.34-.1,16.76,16.76,0,0,0-.18-2.2,11.25,11.25,0,0,1-.13-1.42,6.62,6.62,0,0,1,.2-1.81c.71-3-.84-4.05-.14-7.27a22.86,22.86,0,0,0,.6-2.93A7.07,7.07,0,0,0,39,53.11,2,2,0,0,0,36.86,51.22Z"/><path class="cls-16" d="M51.55,64.16l.59-.07a3.73,3.73,0,0,1,1.54.13l2.15.66h0a.84.84,0,0,1-1,.62L54,65.35l-2.68.86L50.54,65h0A1.19,1.19,0,0,1,51.55,64.16Z"/><path id="_Path_2" data-name="&lt;Path&gt;" class="cls-9" d="M33.19,49.68c2.39.32,2.62.38,2.89.15a4.63,4.63,0,0,0,.62-1.69c.14-.51.25-.94.32-1.25.17,0,.62.17.76,0s0-.34-.15-.68a9.14,9.14,0,0,1-.39-1.28q0-.13,0-.27a4.12,4.12,0,0,0-1.54-3.41,4.44,4.44,0,0,0-4.8-.57A4.26,4.26,0,0,0,28.78,44a8.75,8.75,0,0,0,.48,2.78v0l.06.18c.1.33.63.65.63.65.46.28.55.17.81.35.46.33.31.79.64,1.21S32,49.51,33.19,49.68Z"/><path class="cls-1" d="M30.61,47.38c.63-.31.35-1.79.84-1.92.22-.06.48.17.69.42h.72a6.53,6.53,0,0,1,.28-1.55c.27-.86.49-1.57,1-1.73s.58.18,2.1.84a6.27,6.27,0,0,0,1,.36,4,4,0,0,0-.14-.6,4.63,4.63,0,0,0-1.35-2,4.44,4.44,0,0,0-4.8-.57A4.26,4.26,0,0,0,28.78,44a8.76,8.76,0,0,0,.48,2.78v0l.06.18C29.42,47,30.13,47.61,30.61,47.38Z"/><polygon class="cls-8" points="23.93 109.96 26.9 110.46 27.85 105.52 24.17 105.34 23.93 109.96"/><path class="cls-17" d="M114.77,76.15a39.94,39.94,0,0,0,19.62-53.4C125.61,4.1,102.23-5,83.16,2.8A40,40,0,0,0,58.33,41.1a10.15,10.15,0,0,1-5.94,9.58h0a1.21,1.21,0,0,0-.6,1.6L57.09,64a1.11,1.11,0,0,0,1.47.55h0a8.68,8.68,0,0,1,10,2A40,40,0,0,0,114.77,76.15Z"/><path class="cls-18" d="M55.71,60.91l31.5-14.3a2.32,2.32,0,0,1,3.07,1.15h0a2.32,2.32,0,0,1-1.15,3.07L89,50.9a2.32,2.32,0,0,1-3.07-1.15l-1.75-3.86-2.74-6a2.32,2.32,0,0,1,1.15-3.07l.14-.06a2.32,2.32,0,0,1,3.07,1.15h0a2.32,2.32,0,0,1-1.15,3.07l-31.5,14.3"/><circle class="cls-19" cx="48.14" cy="60.93" r="6.43" transform="translate(-20.88 25.36) rotate(-24.42)"/><rect class="cls-20" x="45.28" y="57.07" width="15.15" height="3.43" rx="1.14" ry="1.14" transform="translate(84.53 -13.64) rotate(65.58)"/><rect class="cls-20" x="42.16" y="58.49" width="15.15" height="3.43" rx="1.14" ry="1.14" transform="translate(83.99 -9.97) rotate(65.58)"/><rect class="cls-20" x="39.03" y="59.91" width="15.15" height="3.43" rx="1.14" ry="1.14" transform="translate(83.45 -6.29) rotate(65.58)"/><path class="cls-9" d="M47.28,65h3.23a.36.36,0,0,1,.42.51.48.48,0,0,1,.34.33.49.49,0,0,1-.26.54.44.44,0,0,1,.14.32c0,.23-.3.45-.71.46a.57.57,0,0,1-.05.39.58.58,0,0,1-.37.28c-1.15.26-1.86.47-1.86.47a6.59,6.59,0,0,1-.79,0,5.51,5.51,0,0,1-.59-.14,3.84,3.84,0,0,0-.55-.06l-1.06,0,.2-1.83Z"/><path class="cls-9" d="M45.71,65.38,46.2,65a3.73,3.73,0,0,1,1.43-.58l2.22-.39h0a.84.84,0,0,1-.58,1l-.84.26-2,2-1.22-.68h0A1.19,1.19,0,0,1,45.71,65.38Z"/><path class="cls-9" d="M33.92,63.69a1.68,1.68,0,0,1,.9.74,26,26,0,0,1,3.61.23c2.36.32,3.5.8,6.08,1.06,1,.1,1.79.12,2.29.12l-1,2.23a72.85,72.85,0,0,1-8.53,1.24,10.12,10.12,0,0,1-2.72-.13c-1.08-.2-3.94-.73-4.21-2.28S32.45,63.24,33.92,63.69Z"/><path class="cls-21" d="M25.55,54a2.39,2.39,0,0,0-1.33,1.52,2.86,2.86,0,0,0,.31,2c1.22,2.62,2,3.22,3.06,5.34a8,8,0,0,0,2,3.1,6.16,6.16,0,0,0,.85.61,4.68,4.68,0,0,1,.88-1,5,5,0,0,1,1.28-.81,5.14,5.14,0,0,1,2.46-.42,3.74,3.74,0,0,0-.54-1.41,9.07,9.07,0,0,0-1.27-1.32,9.21,9.21,0,0,1-1.11-1.78c-1.61-2.56-2.44-3.86-3.48-4.68C28.47,55,26.64,53.52,25.55,54Z"/><path class="cls-22" d="M135.84,52.49,130.76,62l.34.3a2.32,2.32,0,0,0,2.54.66,2.11,2.11,0,0,0,1-1l2.76-8.83c0-.11,0-.28,0-.49.14-1.69.58-2.17.38-3.08-.13-.6-.48-1.12-.65-1.09s-.12.28-.28,1.14-.22,1-.35,1.09c-.3.2-.8,0-1.12-.23Z"/><path class="cls-23" d="M128.19,116.37s.17-.38,1.93-.93a9.3,9.3,0,0,1,2.6-.54,2.3,2.3,0,0,1-1.47,1.47A5.08,5.08,0,0,1,128.19,116.37Z"/><path class="cls-23" d="M115.27,114.2a5.6,5.6,0,0,1,2.35-.39,7.76,7.76,0,0,1,2.47.33s-.5,1.25-2.61,1.25S115.27,114.2,115.27,114.2Z"/><path class="cls-22" d="M108.46,79.66A11.2,11.2,0,0,1,105.72,76,11.7,11.7,0,0,1,105,68.4c1.07-1.83,3.54-5.4,7.67-6.3,1.85-.41,4.59-.39,5,.58s-2.65,3-3.33,3.47l-6.07,3.56c.22.85.42,1.76.58,2.73a34.43,34.43,0,0,1,.49,5.67l1.38-.25a1.73,1.73,0,0,1-.26,1A2,2,0,0,1,108.46,79.66Z"/><path class="cls-9" d="M113.17,76.15a7.24,7.24,0,0,1,.33-1,7.51,7.51,0,0,1,.55-1.06c.23.06.59.16,1,.24s.7.09.86.11c.93.12,2.69.31,7.45.63a12.35,12.35,0,0,1,2.78,5.14c3.23,11.78,3.87,16.39,3.87,16.39s1.3,8.75,2.57,18.67a10.7,10.7,0,0,1-2.07,1.06,6.39,6.39,0,0,1-1.6.33,22.47,22.47,0,0,1-3.27-14.25,40.93,40.93,0,0,0-2.13-7.16c-.68-1.69-2.79-6.94-3.86-6.74s-.23,5.22-.14,14.61c0,5.05,0,9.2,0,12a2.92,2.92,0,0,1-2.25.23,3.13,3.13,0,0,1-1.45-.78,45.3,45.3,0,0,1-.74-4.51c-.09-.83-.13-1.49-.19-2.44-.09-1.59-.19-3.83-.25-6.62-.47-5.6-.59-7.53-.6-8.07a12.35,12.35,0,0,0-.11-1.45c0-.16-.05-.33-.1-.59-.34-1.7-1.85-8.95-1.45-11.58A19.3,19.3,0,0,1,113.17,76.15Z"/><path class="cls-24" d="M115,109.1c0,.31.05.61.09.94a45.3,45.3,0,0,0,.74,4.51,3.13,3.13,0,0,0,1.45.78,2.92,2.92,0,0,0,2.25-.23c0-1.58,0-3.61,0-6Z"/><path class="cls-24" d="M126,109.12c.13.68.3,1.39.52,2.11a22.48,22.48,0,0,0,2.46,5.46,6.39,6.39,0,0,0,1.6-.33,10.7,10.7,0,0,0,2.07-1.06c-.27-2.11-.54-4.17-.8-6.11C129.88,109.2,127.92,109.15,126,109.12Z"/><path class="cls-1" d="M132.72,114.89a5.61,5.61,0,0,1-2.33,1.27,6.52,6.52,0,0,1-2.2.21c.47,1.71.93,3.07,1.26,4a19.71,19.71,0,0,1,1.49,5.48c0,.46,0,.83,0,1.08h2.38l.4-.36.63.35h6c.38,0,.65-.3.53-.6h0l-2.41-.63a6,6,0,0,1-4.68-4.58c-.23-1.43-.5-3-.73-4.15Q132.95,115.91,132.72,114.89Z"/><path class="cls-1" d="M115.27,114.2a7.08,7.08,0,0,0,4.83-.06c-.13,2.24-.33,4-.49,5.3-.2,1.58-.58,4.14.25,4.52a1.42,1.42,0,0,0,.32.08l.48.11c.19,0,.57.12,1.39.23l.13.38a37.66,37.66,0,0,1-4.26.94,1.69,1.69,0,0,1-1.37-.23,1.28,1.28,0,0,1-.38-.81Z"/><path class="cls-25" d="M112.72,76.25q-1,3.93-1.9,8.21c-1.09,5.3-1.85,10.35-2.38,15.07A22.07,22.07,0,0,0,112,101a24.14,24.14,0,0,0,16.3-.93,23.36,23.36,0,0,0,5-3c-1.82-7.56-3.42-13.05-4-14.4a22.86,22.86,0,0,0-1.75-3.56,23.26,23.26,0,0,0-4.13-5Z"/><path class="cls-26" d="M113.14,51.36c.64-1.16,2.85-1.73,4.21-1.08a3.51,3.51,0,0,1,.39.23c2,1.27,3.63,2.28,3.86,3.86a3.56,3.56,0,0,1,0,.83,2,2,0,0,1,1.11.38,2.72,2.72,0,0,1,.51,3.16,3.34,3.34,0,0,1-3.89,1.6,4.79,4.79,0,0,1-.71-.32c-.26-.19-.65-.48-1.09-.87C115.37,57.27,112,53.34,113.14,51.36Z"/><path class="cls-22" d="M115.71,50.51a11.83,11.83,0,0,1,2.92,2.11c.1.11.13.17.45.2s.69,0,.7.18-.28.63-.25.82l1.16,2.06a.73.73,0,0,1-.14.9l-.5.46-3.12,2.89a32.23,32.23,0,0,0-.21-4.58q0-.43-.11-.84A3.43,3.43,0,0,0,117,53a3.65,3.65,0,0,0-.51-1.57A3.75,3.75,0,0,0,115.71,50.51Z"/><path class="cls-22" d="M119.54,61.93l-4.65.42a14,14,0,0,0-.44-4.84l4.65-.42Z"/><path class="cls-22" d="M134.2,61.16v0a2,2,0,0,0-2.54-1.92A37.4,37.4,0,0,1,128,60a47.21,47.21,0,0,1-5.17.53c-3.05.2-7.66.34-9.92,1.17A8.82,8.82,0,0,0,110.64,63l-.79.68a25.24,25.24,0,0,1,1.77,4.27,25.58,25.58,0,0,1,1.1,8.75,39.41,39.41,0,0,0,6.12.45c4.89,0,6.57-1,6.57-1a26.61,26.61,0,0,1,0-5.2c.18-1.63.46-2.21.17-3.35a5.41,5.41,0,0,0-.85-1.81,45.73,45.73,0,0,0,6.62-2L133,63A2,2,0,0,0,134.2,61.16Z"/><path class="cls-27" d="M108,70.11l.42.17c0-.19-.1-.38-.15-.57l6.07-3.56c.68-.47,3.75-2.46,3.33-3.47s-3.14-1-5-.58c-4,.87-6.41,4.2-7.54,6.08a1.33,1.33,0,0,0-.17.5c0,.34-.1.73-.13,1.17A6.06,6.06,0,0,1,108,70.11Z"/><path class="cls-28" d="M133.06,63q0-.76,0-1.52a2,2,0,0,0-2.53-2c-.78.19-1.63.36-2.54.52a47.22,47.22,0,0,1-5.17.53c-3.05.2-7.66.34-9.92,1.17A8.82,8.82,0,0,0,110.64,63l-.79.68a25.24,25.24,0,0,1,1.77,4.27,25.58,25.58,0,0,1,1.1,8.75,39.41,39.41,0,0,0,6.12.45c4.89,0,6.57-1,6.57-1a26.61,26.61,0,0,1,0-5.2c.18-1.63.46-2.21.17-3.35a5.41,5.41,0,0,0-.85-1.81,45.73,45.73,0,0,0,6.62-2C131.84,63.5,132.42,63.27,133.06,63Z"/><path class="cls-26" d="M115.16,50.59a4.78,4.78,0,0,1,1,2.65c.16,1.45,1,1.91,1.91,4.16.65,1.56,1,2.34.79,3.05-.56,2.12-4.67,3.82-6.43,2.25a3.7,3.7,0,0,1-.84-3,6.92,6.92,0,0,1-1.34-3.43,6.35,6.35,0,0,1,0-1.17C110.36,53.54,112.19,50.44,115.16,50.59Z"/><path class="cls-29" d="M187.82,37.52a1.84,1.84,0,0,1-1.4-.28c-.58-.46-.57-1.27-.53-2.64a9.4,9.4,0,0,1,.93-3.87c.11-.22.55-1.1.77-1s.09.13.11.22a1.61,1.61,0,0,1-.16,1,8.45,8.45,0,0,0-.41,1.28.59.59,0,0,1,1,.32.86.86,0,0,1,.66.06c.42.26.31,1,.34,1.56a3,3,0,0,1-.36,1.57Z"/><path class="cls-1" d="M165.43,111.28h3.38c0-.58-.08-1.19-.09-1.84q0-.61,0-1.17a9,9,0,0,0-3.21,0,9.39,9.39,0,0,1-.09,3Z"/><path class="cls-1" d="M179.91,113.76h3.38c0-.6-.57-2.43-.6-3l-1.86-.22-1.66-.22c.15.55.29,1.13.42,1.74S179.82,113.21,179.91,113.76Z"/><path id="_Path_3" data-name="&lt;Path&gt;" class="cls-1" d="M168.11,111v0c.06,0,.24-.53.49-.64.48-.21,0,1.22,1.11,2.15a4,4,0,0,0,1.33.77.42.42,0,0,1,.24.41v.4h-6.46a7.36,7.36,0,0,1,.58-3.1Z"/><path id="_Path_4" data-name="&lt;Path&gt;" class="cls-1" d="M182.59,113.52v0c.06,0,.24-.53.49-.64.48-.21,1.27,1.22,2.68,2.15a5.86,5.86,0,0,0,1.76.77.42.42,0,0,1,.32.41v.4h-8.54a7.36,7.36,0,0,1,.58-3.1Z"/><path class="cls-29" d="M154.76,77.07a1.94,1.94,0,0,1,1.45.39c.51.47.47,1.25.37,2.81-.09,1.35-.16,2.31-.72,2.53a1,1,0,0,1-.74-.08.62.62,0,0,1-1.08-.4.91.91,0,0,1-.69-.11c-.42-.3-.26-1-.25-1.66a3.14,3.14,0,0,1,.49-1.63Z"/><path class="cls-30" d="M161.18,52.84c-.14.18-.34.45-.57.79-.86,1.26-1.12,2-2.78,6a21.2,21.2,0,0,0-1.26,3.74c0,.22-.07.35-.09.43l-2.33,14.39,2.93.45,3.73-14,4.86-10-2.12-1.44Z"/><path class="cls-31" d="M179.54,112.49A88.18,88.18,0,0,1,176,97.41c-.29-2-.5-4-.65-5.86q-2-3.72-3.92-7.48l-1.84-3.56c0,3.93,0,7.88,0,11.78,0,5.84-.14,11.79-.28,17.66v.3a3.67,3.67,0,0,1-2.53.33,3.57,3.57,0,0,1-1.63-.91l-.09-.12,0-.14q0-4.52-.22-9.37-.23-5.08-.66-9.78a45.94,45.94,0,0,0-1-9.17c-.68-3.16-1.38-4.69-1.38-7.6,0,0-.3-1.36.8-6a10.79,10.79,0,0,1,.34-1.12,9.23,9.23,0,0,1,.57-1.24l.26-.47.51.16a8.76,8.76,0,0,0,.94.24c.27.05.49.08.64.1l.15,0c.84.12,2.48.32,7.12.68.48,1,1.15,2.54,1.9,4.37a99.67,99.67,0,0,1,5.81,19.89c.25,1.42,0,.3,2.14,17.9l.46,3.83,0,.15-.05.14a4.61,4.61,0,0,1-3.76.38Z"/><path class="cls-26" d="M168.29,41.79c.34-.52.78-1.32.49-1.72s-.85-.11-2.32,0c-2.1.08-2.33-.28-3.4.06a4,4,0,0,0-2.12,1.47,4.59,4.59,0,0,0-.4,3.78,6,6,0,0,0,2.74,3.49l1.14.73L167.66,44Z"/><path class="cls-32" d="M164.58,51.51h4.37a8.11,8.11,0,0,1-.47-4.92l-2.66-.13c0,.16-.08.38-.16.66a2.28,2.28,0,0,1-.29.74,1.52,1.52,0,0,1-1.17.5Z"/><path class="cls-29" d="M168.29,41.79l.62,1.44,1.86,1.15-.45.79.16,2.86a7.1,7.1,0,0,1-1.82,1,11.43,11.43,0,0,1-2.6.16c-1,0-1.44,0-1.66-.22a1.25,1.25,0,0,1-.08-1.19c.15-.36.33-.33.49-.67.26-.54-.06-.86.1-1.37s.55-.4,1.15-1,.54-1.18,1.22-2A3.78,3.78,0,0,1,168.29,41.79Z"/><path class="cls-33" d="M184.63,51.51a36,36,0,0,1-10.77,4.66q.05,2,.16,4c.19,3.49.5,6.83.9,10a12.11,12.11,0,0,1-5.52,3.13,12.45,12.45,0,0,1-8.67-1.09,35.27,35.27,0,0,0,.14-11.91c-.35-2.07-1.34-6.49.54-7.75l0,0,.46-.29s.51-.31,1-.57a22.93,22.93,0,0,1,6.34-1.5c5.6-.52,5.4-.42,6.49-.6a27.19,27.19,0,0,0,5.91-1.65L185.59,36l3.1.81c-.5,2.55-1.14,5.27-2,8.14C186.08,47.3,185.36,49.48,184.63,51.51Z"/><path class="cls-22" d="M164.8,47.08"/><path class="cls-26" d="M170.31,45.17a.7.7,0,0,1,.26.76,2.84,2.84,0,0,1-1.28.31c0,.15,0,.34.07.58.09.62.13.68.19.71s.61-.12.77-.45a.82.82,0,0,0,.08-.38,1.3,1.3,0,0,1,.42.68,1.33,1.33,0,0,1-.17,1,1.79,1.79,0,0,1-1.36.78h-.09a15,15,0,0,1-2.75.08c-1.37-.41-1.28-4.61-1.27-4.8l1.52-.92a2,2,0,0,0-.19,1.71c.05.13.33.84.9.95s.9-.53,2-.85A4,4,0,0,1,170.31,45.17Z"/></g></g></g></svg>